HIERARCHY
ROOT Hips
{
	OFFSET 0.000000 0.000000 0.000000 
	CHANNELS 6 Xposition Yposition Zposition Yrotation Zrotation Xrotation 
	JOINT Lumbar
	{
		OFFSET 0.000000 0.000000 0.000000 
		CHANNELS 3 Zrotation Xrotation Yrotation
		JOINT Neck
		{
			OFFSET 0.000000 0.445665 0.000000 
			CHANNELS 3 Zrotation Xrotation Yrotation
			End Site
			{
				OFFSET 0.000000 0.227535 0.000000 
			}
		}
		JOINT RightShoulder
		{
			OFFSET 0.019635 0.377685 0.194865 
			CHANNELS 3 Zrotation Xrotation Yrotation
			JOINT RightElbow
			{
				OFFSET 0.000000 -0.243375 0.000000 
				CHANNELS 2 Zrotation Yrotation
				JOINT RightWrist
				{
					OFFSET 0.000000 -0.264825 0.000000 
					CHANNELS 2 Zrotation Xrotation
					End Site
					{
						OFFSET 0.006600 -0.176220 0.000990 
					}
				}
			}
		}
		JOINT LeftShoulder
		{
			OFFSET 0.019635 0.377685 -0.194865 
			CHANNELS 3 Zrotation Xrotation Yrotation
			JOINT LeftElbow
			{
				OFFSET 0.000000 -0.243375 0.000000 
				CHANNELS 2 Zrotation Yrotation
				JOINT LeftWrist
				{
					OFFSET 0.000000 -0.264825 0.000000 
					CHANNELS 2 Zrotation Xrotation
					End Site
					{
						OFFSET 0.006600 -0.176220 -0.000990 
					}
				}
			}
		}
	}
	JOINT RightHip
	{
		OFFSET 0.052140 -0.069960 0.075570 
		CHANNELS 3 Zrotation Xrotation Yrotation
		JOINT RightKnee
		{
			OFFSET 0.000000 -0.402270 0.000000 
			CHANNELS 1 Zrotation
			JOINT RightAnkle
			{
				OFFSET 0.000000 -0.404085 0.000000 
				CHANNELS 3 Zrotation Xrotation Yrotation
				End Site
				{
					OFFSET 0.204105 -0.089430 0.008415 
				}
			}
		}
	}
	JOINT LeftHip
	{
		OFFSET 0.052140 -0.069960 -0.075570 
		CHANNELS 3 Zrotation Xrotation Yrotation
		JOINT LeftKnee
		{
			OFFSET 0.000000 -0.402270 0.000000 
			CHANNELS 1 Zrotation
			JOINT LeftAnkle
			{
				OFFSET 0.000000 -0.404085 0.000000 
				CHANNELS 3 Zrotation Xrotation Yrotation
				End Site
				{
					OFFSET 0.204105 -0.089430 -0.008415 
				}
			}
		}
	}
}
MOTION
Frames: 30
Frame Time: 0.02
-5e-05 -7e-05 -0.0001 -177.48383 -41.45868 -1.41161 48.70413 2.76043 -4.7511 4.72634 -0.85302 -0.12961 -18.56221 -11.09224 11.28824 33.77624 54.36069 -3.71852 -5.25036 -21.74415 19.34596 -27.53209 49.74235 -65.51826 -3.04539 5.74221 44.70591 -0.00831 -6.5997 -19.42131 -6.2033 -3.7883 -2.57952 48.36679 4.36639 4.5448 -24.58827 -6.33246 2.3974 1.88505
-0.00017 -8e-05 -1e-05 -177.48936 -41.45817 -1.41665 48.70635 2.75676 -4.74308 4.72309 -0.85584 -0.13002 -18.54637 -10.52692 9.51077 33.78417 61.87332 -1.88509 -4.03033 -21.94989 18.71493 -26.1182 49.73606 -69.32481 -1.46124 5.0215 44.70241 -0.0086 -6.59259 -19.42011 -6.20149 -3.78213 -2.57768 48.36483 4.32908 4.38161 -24.58842 -6.33116 2.41951 1.895
-0.00028 -8e-05 8e-05 -177.49492 -41.45766 -1.42167 48.7086 2.7531 -4.73506 4.71982 -0.85864 -0.13042 -18.5306 -9.96334 7.73881 33.79207 69.36279 -0.05732 -2.81408 -22.15503 18.08587 -24.70874 49.7298 -73.11958 0.118 4.303 44.69889 -0.00889 -6.58552 -19.4189 -6.19967 -3.77598 -2.57585 48.36285 4.29191 4.21905 -24.58856 -6.32987 2.44157 1.90492
-0.00039 -9e-05 0.00017 -177.50044 -41.45716 -1.42669 48.71082 2.74944 -4.72706 4.71657 -0.86145 -0.13083 -18.51482 -9.39977 5.96682 33.79997 76.85229 1.77047 -1.59781 -22.36014 17.45679 -23.29922 49.72353 -76.9144 1.69726 3.58451 44.69539 -0.00918 -6.57844 -19.4177 -6.19786 -3.76983 -2.57402 48.36089 4.25472 4.05639 -24.5887 -6.32858 2.46361 1.91484
-0.0005 -9e-05 0.00027 -177.50591 -41.45666 -1.43171 48.71302 2.74578 -4.7191 4.71335 -0.86428 -0.13124 -18.49893 -8.83446 4.18933 33.80792 84.3649 3.60389 -0.37779 -22.56581 16.8257 -21.88525 49.71722 -80.72101 3.28145 2.86379 44.69192 -0.00947 -6.57133 -19.41651 -6.19604 -3.76367 -2.57219 48.35897 4.21737 3.89306 -24.58885 -6.32729 2.48571 1.92478
-0.00062 -0.0001 0.00036 -177.51164 -41.45613 -1.43674 48.71538 2.74214 -4.71095 4.70996 -0.86702 -0.13165 -18.48343 -8.27454 2.42906 33.81571 91.80528 5.41968 0.83049 -22.76984 16.20097 -20.48533 49.71109 -84.49068 4.85019 2.15001 44.68831 -0.00977 -6.56434 -19.41529 -6.19423 -3.75753 -2.57036 48.35684 4.18056 3.73211 -24.58898 -6.32599 2.50766 1.93466
-0.00073 -0.00011 0.00045 -177.51685 -41.45566 -1.44175 48.7174 2.73845 -4.70317 4.70692 -0.86994 -0.13205 -18.46718 -7.70443 0.63618 33.82382 99.38251 7.26888 2.06101 -22.97695 15.56418 -19.05879 49.70459 -88.33029 6.44818 1.42309 44.68498 -0.01004 -6.55712 -19.41412 -6.19241 -3.75136 -2.56853 48.35513 4.14274 3.5666 -24.58914 -6.32471 2.52988 1.94465
-0.00084 -0.00011 0.00054 -177.52253 -41.45514 -1.44678 48.71972 2.7348 -4.69507 4.70357 -0.8727 -0.13246 -18.4516 -7.14367 -1.12677 33.83163 106.83407 9.0874 3.27111 -23.18122 14.93841 -17.6566 49.69842 -92.10585 8.01938 0.70821 44.6814 -0.01034 -6.55011 -19.41291 -6.1906 -3.74522 -2.5667 48.35305 4.10581 3.40516 -24.58928 -6.32341 2.55186 1.95454
-0.00095 -0.00012 0.00063 -177.52887 -41.45454 -1.45183 48.72246 2.7312 -4.6865 4.69976 -0.87524 -0.13287 -18.43692 -6.59428 -2.85332 33.83908 114.13305 10.86866 4.4564 -23.38212 14.32625 -16.28437 49.6927 -95.80294 9.55776 0.00807 44.67744 -0.01068 -6.54336 -19.41162 -6.18878 -3.73908 -2.56485 48.35044 4.07009 3.24921 -24.58939 -6.32211 2.57354 1.9643
-0.00106 -0.00012 0.00072 -177.53165 -41.45434 -1.45676 48.72298 2.72733 -4.68039 4.69837 -0.87898 -0.13327 -18.41731 -5.97927 -4.78994 33.8486 122.31324 12.8651 5.78492 -23.60271 13.63617 -14.7403 49.68454 -99.9511 11.28481 -0.77684 44.67547 -0.01078 -6.53513 -19.41071 -6.18699 -3.73286 -2.56309 48.35066 4.02777 3.06322 -24.58962 -6.32086 2.59693 1.97481
-0.00118 -0.00013 0.00081 -177.54176 -41.45332 -1.46195 48.72805 2.72404 -4.66923 4.692 -0.88023 -0.1337 -18.40796 -5.5029 -6.28282 33.85376 128.63156 14.4069 6.81084 -23.78155 13.11032 -13.55855 49.68145 -103.14754 12.61381 -1.38286 44.66942 -0.0114 -6.53 -19.40903 -6.18514 -3.72684 -2.56114 48.34506 3.99917 2.93964 -24.58963 -6.3195 2.6167 1.98372
-0.00135 -0.00013 0.00088 -177.57374 -41.4499 -1.46796 48.74674 2.72234 -4.64284 4.67087 -0.87433 -0.13426 -18.42811 -5.40956 -6.54862 33.84659 129.80405 14.69213 7.00041 -23.84639 13.04075 -13.38236 49.69299 -103.70766 12.83985 -1.49361 44.65124 -0.01348 -6.53344 -19.40506 -6.18302 -3.72111 -2.55857 48.32213 4.01038 2.99702 -24.58895 -6.31779 2.62655 1.98824
-0.00153 -0.00013 0.00095 -177.61276 -41.4457 -1.47423 48.76979 2.72123 -4.61162 4.64492 -0.866 -0.13485 -18.45832 -5.45544 -6.3691 33.83505 129.10685 14.5208 6.88612 -23.8692 13.13505 -13.56788 49.70949 -103.3165 12.66809 -1.4255 44.62915 -0.01608 -6.53993 -19.40037 -6.18086 -3.71562 -2.55583 48.29361 4.03501 3.11537 -24.58807 -6.31598 2.63276 1.99114
-0.0017 -0.00013 0.00102 -177.6474 -41.44198 -1.48032 48.79011 2.71987 -4.5835 4.62188 -0.85901 -0.13542 -18.48307 -5.43529 -6.40147 33.82577 129.29815 14.56645 6.91624 -23.91085 13.15068 -13.58046 49.72326 -103.3771 12.68546 -1.44217 44.6095 -0.01844 -6.54499 -19.39614 -6.17878 -3.71017 -2.55326 48.26855 4.05205 3.19934 -24.58734 -6.31424 2.64065 1.99476
-0.00189 -0.00013 0.00108 -177.68699 -41.43772 -1.48665 48.81357 2.71843 -4.55157 4.59581 -0.85107 -0.13604 -18.51159 -5.42504 -6.39902 33.81549 129.3505 14.57812 6.9237 -23.95351 13.18433 -13.62991 49.73906 -103.3546 12.66711 -1.44393 44.58708 -0.02082 -6.55035 -19.39133 -6.17643 -3.70408 -2.55031 48.23962 4.07529 3.31118 -24.58639 -6.3124 2.64843 1.99844
-0.00204 -0.00013 0.00115 -177.71801 -41.43441 -1.49256 48.83154 2.7173 -4.52639 4.5749 -0.8445 -0.13656 -18.53466 -5.42971 -6.35575 33.80604 129.21316 14.54353 6.90054 -23.9841 13.21932 -13.6883 49.75181 -103.27856 12.62844 -1.43412 44.56947 -0.02326 -6.55565 -19.38755 -6.17463 -3.6994 -2.54812 48.21738 4.08893 3.37998 -24.58583 -6.31075 2.65555 2.00161
-0.00206 -0.00013 0.00124 -177.72312 -41.43397 -1.49721 48.83309 2.71687 -4.52136 4.56963 -0.84249 -0.13682 -18.53952 -5.41782 -6.38241 33.80083 129.34119 14.57418 6.92093 -23.99166 13.2174 -13.68168 49.75473 -103.30094 12.63644 -1.43874 44.56629 -0.02594 -6.56131 -19.3869 -6.17435 -3.69855 -2.54808 48.21525 4.07168 3.30986 -24.58641 -6.30963 2.66192 2.00385
-0.00204 -0.00014 0.00132 -177.71947 -41.43449 -1.50143 48.82897 2.71676 -4.5232 4.56968 -0.84184 -0.13699 -18.53831 -5.41951 -6.37354 33.79573 129.29397 14.56199 6.91315 -23.98848 13.21133 -13.67188 49.75444 -103.30021 12.63697 -1.43744 44.56805 -0.02863 -6.56658 -19.3873 -6.17461 -3.69911 -2.54882 48.21995 4.0445 3.19528 -24.58738 -6.30871 2.66771 2.00562
-0.00204 -0.00015 0.00141 -177.72018 -41.43457 -1.50585 48.82758 2.7165 -4.52174 4.56716 -0.84055 -0.13721 -18.54084 -5.43172 -6.32799 33.79089 129.09427 14.51244 6.88051 -23.99029 13.20731 -13.6639 49.75573 -103.30139 12.63732 -1.43723 44.56747 -0.03117 -6.57114 -19.38718 -6.17463 -3.69904 -2.5492 48.22134 4.02259 3.10442 -24.58815 -6.30772 2.67362 2.00756
-0.00203 -0.00015 0.00149 -177.71955 -41.43474 -1.51024 48.82575 2.71619 -4.52104 4.56512 -0.83961 -0.1374 -18.54114 -5.38241 -6.47444 33.78747 129.75814 14.67452 6.98778 -23.9904 13.20789 -13.66605 49.75665 -103.30509 12.63833 -1.43763 44.56722 -0.0343 -6.57944 -19.38722 -6.17465 -3.69897 -2.54959 48.22348 3.99795 3.00082 -24.58899 -6.30664 2.67999 2.00962
-0.00203 -0.00016 0.00159 -177.71955 -41.43484 -1.51463 48.82334 2.71614 -4.52022 4.56341 -0.83787 -0.13763 -18.54255 -5.4575 -6.23777 33.77756 128.67018 14.40706 6.81153 -23.99176 13.1963 -13.64277 49.75754 -103.3111 12.64203 -1.43756 44.5674 -0.03622 -6.57996 -19.38719 -6.17479 -3.69921 -2.55014 48.22565 3.97645 2.91243 -24.58979 -6.30578 2.68533 2.01135
-0.00202 -0.00016 0.00171 -177.72354 -41.43549 -1.51878 48.82146 2.71622 -4.519 4.56139 -0.83699 -0.13801 -18.56445 -5.9181 -4.78621 33.77931 122.22582 12.82707 5.76684 -24.00189 13.14717 -13.53891 49.75925 -103.32873 12.65171 -1.43953 44.5684 -0.03456 -6.55781 -19.3866 -6.17521 -3.70002 -2.55105 48.22715 3.96601 2.87622 -24.59042 -6.30555 2.68799 2.01233
-0.002 -0.00016 0.00184 -177.72859 -41.43581 -1.52302 48.81895 2.7167 -4.51679 4.55961 -0.83439 -0.13844 -18.58402 -6.49547 -2.98274 33.76804 114.12464 10.83973 4.45468 -24.01334 13.08619 -13.41004 49.76111 -103.35465 12.66725 -1.44177 44.56951 -0.03173 -6.52809 -19.38594 -6.1757 -3.70108 -2.55207 48.22824 3.95898 2.85656 -24.59102 -6.30553 2.6897 2.01302
-0.00199 -0.00016 0.00197 -177.73285 -41.43568 -1.52738 48.81633 2.71721 -4.51446 4.55759 -0.83067 -0.13885 -18.59499 -6.9874 -1.45222 33.74457 107.17792 9.13657 3.32955 -24.02263 13.03288 -13.2978 49.76266 -103.38151 12.68389 -1.44352 44.57006 -0.02956 -6.50264 -19.38535 -6.17611 -3.70202 -2.55301 48.22901 3.95039 2.82963 -24.59161 -6.30538 2.69182 2.01382
-0.00198 -0.00015 0.0021 -177.73741 -41.43828 -1.53093 48.81554 2.71655 -4.51624 4.55597 -0.83602 -0.13921 -18.64917 -7.61156 0.5539 33.80162 98.58704 7.03156 1.93462 -24.03815 12.96929 -13.16252 49.76463 -103.38593 12.68296 -1.44646 44.57295 -0.02679 -6.47357 -19.38458 -6.17679 -3.70308 -2.55414 48.23238 3.94166 2.80058 -24.59228 -6.3054 2.69385 2.01461
-0.00196 -0.00015 0.00223 -177.7426 -41.43489 -1.53635 48.81043 2.7188 -4.50732 4.55394 -0.82083 -0.13971 -18.60958 -7.99415 1.65635 33.68285 92.95671 5.64467 1.02873 -24.04111 12.92509 -13.07047 49.7664 -103.44091 12.72165 -1.44716 44.57088 -0.02505 -6.45035 -19.38425 -6.17687 -3.70386 -2.55485 48.22986 3.93398 2.77989 -24.59283 -6.30509 2.69606 2.01549
-0.00192 -0.00017 0.00237 -177.74227 -41.4167 -1.54538 48.79719 2.72555 -4.48506 4.54627 -0.76005 -0.14056 -18.34035 -7.62722 0.14565 33.12797 96.55367 6.54244 1.62525 -24.01032 12.93073 -13.09247 49.7626 -103.62202 12.85559 -1.44137 44.55545 -0.02615 -6.4446 -19.38423 -6.17558 -3.70428 -2.55464 48.21327 3.92944 2.78225 -24.5925 -6.30398 2.69727 2.0157
-0.00188 -0.00018 0.0025 -177.7442 -41.39209 -1.55653 48.77906 2.73584 -4.44933 4.53852 -0.67678 -0.14155 -17.9719 -7.02353 -2.27867 32.39038 103.07832 8.14354 2.70829 -23.96721 12.95753 -13.16042 49.75959 -103.85557 13.03122 -1.43342 44.5348 -0.02846 -6.44525 -19.38479 -6.17361 -3.70425 -2.5539 48.19018 3.92549 2.79128 -24.59214 -6.30254 2.69913 2.01626
-0.00183 -0.00019 0.00264 -177.7494 -41.36946 -1.56773 48.76066 2.74678 -4.40892 4.53431 -0.59665 -0.14248 -17.62959 -6.56295 -4.26703 31.70309 107.82588 9.28535 3.51054 -23.92828 12.97901 -13.2155 49.75948 -104.0735 13.19679 -1.42668 44.51642 -0.03033 -6.44316 -19.38572 -6.17175 -3.70418 -2.55326 48.16886 3.92082 2.79563 -24.59219 -6.30109 2.70169 2.01725
-0.00179 -0.00022 0.00277 -177.7353 -41.35115 -1.57476 48.75234 2.74823 -4.41296 4.51723 -0.54589 -0.14337 -17.36561 -5.95485 -6.34001 31.14366 114.35679 10.98608 4.55077 -23.89316 12.98201 -13.2381 49.74548 -104.25911 13.3269 -1.419 44.49897 -0.03142 -6.43952 -19.38411 -6.17073 -3.70542 -2.55336 48.15318 3.91893 2.81009 -24.5906 -6.30017 2.69958 2.01551
